<svg xmlns="http://www.w3.org/2000/svg" viewBox="0 0 1645.95 358.74"><defs><style>.cls-1{fill:#222221;}.cls-2{fill:#6d7296;}.cls-3{fill:#a3a4bd;}.cls-4{fill:#e9e9f0;}.cls-5{fill:#999ab6;}.cls-6{fill:#d7d6e2;}.cls-7{fill:#212120;}.cls-8{fill:#0c0d0d;}.cls-9{fill:#47537d;}.cls-10{fill:#c4c4d6;}.cls-11{fill:#717598;}.cls-12{fill:#bebed1;}.cls-13{fill:#8b8dab;}.cls-14{fill:#49547e;}.cls-15{fill:#898baa;}.cls-16{fill:#bcbccf;}.cls-17{fill:#5c648a;}.cls-18{fill:#c7c7d7;}.cls-19{fill:#efeef4;}.cls-20{fill:#9d9eb9;}.cls-21{fill:#9b9db8;}.cls-22{fill:#a6a6bf;}.cls-23{fill:#babace;}.cls-24{fill:#d2d2e0;}.cls-25{fill:#e2e2eb;}.cls-26{fill:#e7e7ef;}.cls-27{fill:#b1b1c7;}.cls-28{fill:#8385a5;}.cls-29{fill:#f6f6f9;}.cls-30{fill:#4b557f;}.cls-31{fill:#b3b3c9;}.cls-32{fill:#8083a4;}.cls-33{fill:#9597b3;}.cls-34{fill:#8587a7;}.cls-35{fill:#121213;}.cls-36{fill:#c3c2d4;}.cls-37{fill:#b7b7cc;}.cls-38{fill:#e5e5ee;}.cls-39{fill:#f0f0f5;}.cls-40{fill:#ececf3;}.cls-41{fill:#e0e0ea;}</style></defs><title>Asset 9</title><g id="Layer_2" data-name="Layer 2"><g id="Low_poly" data-name="Low poly"><path class="cls-1" d="M575,74q22.59,10.23,34.81,29T622,147.54q0,25.41-12.21,44.38T575,221Q552.33,231,521.65,231H475.12v63.69H421.66v-231h100Q552.34,63.72,575,74ZM555.31,177.07q12.54-10.4,12.54-29.53,0-19.47-12.54-29.87t-36.63-10.39H475.12v80.19h43.56Q542.77,187.47,555.31,177.07Z"/><path class="cls-1" d="M690.12,285.64a87,87,0,0,1-34.82-32.5Q642.76,232.35,642.76,206t12.54-47.19a87.18,87.18,0,0,1,34.82-32.51q22.27-11.7,50.32-11.71t50.16,11.71a87.44,87.44,0,0,1,34.65,32.51q12.54,20.79,12.54,47.19t-12.54,47.19a87.28,87.28,0,0,1-34.65,32.5q-22.11,11.73-50.16,11.72T690.12,285.64ZM773,241.75q12.69-13.37,12.7-35.8T773,170.14q-12.71-13.37-32.51-13.36t-32.67,13.36Q694.9,183.51,694.9,206t12.87,35.8q12.87,13.37,32.67,13.37T773,241.75Z"/><path class="cls-1" d="M1022.1,125.92a81.8,81.8,0,0,1,31.84,32q11.55,20.64,11.55,48t-11.55,48a81.67,81.67,0,0,1-31.84,32,90.5,90.5,0,0,1-45.05,11.39q-34,0-53.46-21.45v82.83H872.11V117.18h49.17v20.46q19.14-23.1,55.77-23.1Q1001.8,114.54,1022.1,125.92Zm-21.45,115.83q12.71-13.37,12.7-35.8t-12.7-35.81q-12.71-13.37-32.51-13.36t-32.5,13.36Q922.94,183.51,922.93,206t12.71,35.8q12.71,13.37,32.5,13.37T1000.65,241.75Z"/><path class="cls-1" d="M1249.79,125.92a81.83,81.83,0,0,1,31.85,32q11.55,20.64,11.55,48t-11.55,48a81.7,81.7,0,0,1-31.85,32,90.46,90.46,0,0,1-45,11.39q-34,0-53.46-21.45v82.83h-51.48V117.18H1149v20.46q19.14-23.1,55.77-23.1Q1229.5,114.54,1249.79,125.92Zm-21.45,115.83q12.71-13.37,12.71-35.8t-12.71-35.81q-12.71-13.37-32.5-13.36t-32.51,13.36q-12.7,13.37-12.7,35.81t12.7,35.8q12.7,13.37,32.51,13.37T1228.34,241.75Z"/><path class="cls-1" d="M1500.42,220.47H1366.11a41.83,41.83,0,0,0,17.16,26.07q13.53,9.57,33.66,9.57a68,68,0,0,0,24.59-4.13,59.36,59.36,0,0,0,20-13l27.39,29.7q-25.08,28.71-73.26,28.71-30,0-53.13-11.72t-35.64-32.5Q1314.3,232.35,1314.3,206q0-26.07,12.38-47a86.83,86.83,0,0,1,34-32.67q21.61-11.7,48.34-11.71,26.07,0,47.19,11.22a82,82,0,0,1,33.17,32.17q12,21,12,48.68Q1501.41,207.6,1500.42,220.47ZM1380,163.38q-11.88,9.9-14.52,27.06h87.45q-2.64-16.83-14.52-26.9t-29-10.06Q1391.85,153.48,1380,163.38Z"/><path class="cls-1" d="M1609.82,121.14q15.66-6.6,36.13-6.6v47.52q-8.58-.66-11.55-.66-22.11,0-34.65,12.37t-12.54,37.13v83.82h-51.48V117.18h49.17v23.43A57.26,57.26,0,0,1,1609.82,121.14Z"/><polygon class="cls-2" points="321.06 106.83 328 142.05 268.52 63.38 321.06 106.83"/><polygon class="cls-3" points="268.52 63.38 328 142.05 319.34 189.4 268.52 63.38"/><polygon class="cls-4" points="319.34 189.4 324.53 198.06 291.62 189.29 319.34 189.4"/><polygon class="cls-5" points="324.53 198.06 319.91 231.56 304.27 203.04 291.62 206.15 291.62 189.29 324.53 198.06"/><polygon class="cls-3" points="289.88 51.97 321.06 106.83 268.52 63.38 289.88 51.97"/><polygon class="cls-2" points="304.27 203.04 319.91 231.56 297.97 263.32 304.27 203.04"/><polygon class="cls-6" points="268.52 63.38 319.34 189.4 256.39 91.57 268.52 63.38"/><polygon class="cls-5" points="256.39 91.57 319.34 189.4 263.9 140.32 256.39 91.57"/><polygon class="cls-7" points="319.34 189.4 291.62 189.29 263.9 140.32 319.34 189.4"/><polygon class="cls-5" points="304.27 203.04 297.97 263.32 287.86 256.97 304.27 203.04"/><polygon class="cls-2" points="304.27 203.04 287.86 256.97 280.07 227.35 304.27 203.04"/><polygon class="cls-8" points="304.27 203.04 280.07 227.35 291.62 206.15 304.27 203.04"/><polygon class="cls-9" points="297.97 263.32 271.41 292.77 268.52 276.31 297.97 263.32"/><polygon class="cls-10" points="297.97 263.32 268.52 276.31 258.7 263.32 276.79 263.32 297.97 263.32"/><polygon class="cls-3" points="297.97 263.32 276.79 263.32 287.86 256.97 297.97 263.32"/><polygon class="cls-3" points="291.62 189.29 291.62 206.15 276.79 204.76 291.62 189.29"/><polygon class="cls-9" points="263.9 140.32 291.62 189.29 261.59 200.72 263.9 140.32"/><polygon class="cls-8" points="291.62 189.29 276.79 204.76 258.7 223.65 261.59 200.72 291.62 189.29"/><polygon class="cls-11" points="291.62 206.15 280.07 227.35 276.79 204.76 291.62 206.15"/><polygon class="cls-10" points="289.88 51.97 268.52 63.38 213.94 24.52 289.88 51.97"/><polygon class="cls-3" points="289.88 51.97 213.94 24.52 236.76 11.55 289.88 51.97"/><polygon class="cls-9" points="280.07 227.35 287.86 256.97 276.79 263.32 278.05 249.46 280.07 227.35"/><polygon class="cls-5" points="276.79 204.76 280.07 227.35 258.7 223.65 276.79 204.76"/><polygon class="cls-8" points="280.07 227.35 278.05 249.46 258.7 223.65 280.07 227.35"/><polygon class="cls-2" points="278.05 249.46 276.79 263.32 258.7 263.32 278.05 249.46"/><polygon class="cls-2" points="268.52 276.31 271.41 292.77 258.7 309.52 268.52 276.31"/><polygon class="cls-12" points="268.52 63.38 256.39 91.57 213.94 24.52 268.52 63.38"/><polygon class="cls-3" points="258.7 263.32 268.52 276.31 241.67 271.4 258.7 263.32"/><polygon class="cls-3" points="268.52 276.31 258.7 309.52 245.99 309.52 239.65 298.55 236.18 292.77 268.52 276.31"/><polygon class="cls-10" points="268.52 276.31 236.18 292.77 241.67 271.4 268.52 276.31"/><polygon class="cls-13" points="256.39 91.57 263.9 140.32 219.44 173.81 213.45 143.9 207.88 116.1 256.39 91.57"/><polygon class="cls-11" points="263.9 140.32 261.59 200.72 219.44 173.81 263.9 140.32"/><polygon class="cls-14" points="263.9 249.46 258.7 223.65 278.05 249.46 258.7 263.32 241.67 271.4 263.9 249.46"/><polygon class="cls-15" points="261.59 200.72 258.7 223.65 222.28 242.51 215.35 212.13 261.59 200.72"/><polygon class="cls-3" points="261.59 200.72 215.4 212.16 206.16 189.29 261.59 200.72"/><polygon class="cls-13" points="261.59 200.72 206.16 189.29 219.44 173.81 261.59 200.72"/><polygon class="cls-1" points="258.7 223.65 263.9 249.46 241.67 271.4 222.32 242.54 258.7 223.65"/><polygon class="cls-4" points="213.94 24.52 256.39 91.57 184.21 87.78 213.94 24.52"/><polygon class="cls-16" points="256.39 91.57 207.88 116.1 184.21 87.78 256.39 91.57"/><polygon class="cls-17" points="222.32 242.54 241.67 271.4 147.83 310.09 222.32 242.54"/><polygon class="cls-1" points="241.67 271.4 236.18 292.77 195.19 332.61 137.38 335.44 71.03 329.15 147.83 310.09 241.67 271.4"/><polygon class="cls-18" points="236.76 11.55 213.94 24.52 191.14 0 236.76 11.55"/><polygon class="cls-19" points="213.94 24.52 79.69 35.23 141.48 4.62 191.14 0 213.94 24.52"/><polygon class="cls-20" points="215.4 212.16 222.32 242.54 140.9 271.4 177.28 219.43 215.4 212.16"/><polygon class="cls-21" points="222.32 242.54 147.83 310.09 140.9 271.4 222.32 242.54"/><polygon class="cls-11" points="203.84 150.14 219.44 173.81 196.34 177.85 203.84 150.14"/><polygon class="cls-13" points="219.44 173.81 206.16 189.29 196.34 177.85 219.44 173.81"/><polygon class="cls-12" points="206.16 189.29 215.4 212.16 180.17 194.6 206.16 189.29"/><polygon class="cls-10" points="215.4 212.16 177.28 219.43 180.17 194.6 215.4 212.16"/><polygon class="cls-22" points="196.34 177.85 206.16 189.29 180.17 194.6 196.34 177.85"/><polygon class="cls-23" points="207.88 116.1 219.44 173.81 203.84 150.14 157.65 109.01 207.88 116.1"/><polygon class="cls-24" points="203.84 150.14 173.82 130.43 144.27 116.1 157.65 109.01 203.84 150.14"/><polygon class="cls-9" points="186.14 156.38 196.34 177.85 164 166.31 164 150.14 186.14 156.38"/><polyline class="cls-25" points="184.21 87.78 207.88 116.1 157.65 109.01 118.96 91.52"/><polygon class="cls-16" points="196.34 177.85 180.17 194.6 164 166.31 196.34 177.85"/><polyline class="cls-4" points="184.21 87.78 118.96 91.52 79.69 35.23"/><polygon class="cls-11" points="186.14 156.38 164 150.14 166.58 144.96 186.14 156.38"/><polygon class="cls-10" points="164 166.31 180.17 194.6 138.3 173.81 147.83 161.97 164 166.31"/><polygon class="cls-26" points="180.17 194.6 177.28 219.43 128.37 192.87 138.3 173.81 180.17 194.6"/><polygon class="cls-27" points="177.28 219.43 140.9 271.4 128.37 192.87 177.28 219.43"/><polygon class="cls-28" points="173.82 130.43 203.84 150.14 196.34 177.85 186.14 156.38 166.58 144.96 147.83 141.76 173.82 130.43"/><polygon class="cls-7" points="173.82 130.43 147.83 141.76 144.27 116.1 173.82 130.43"/><polygon class="cls-5" points="166.58 144.96 164 150.14 147.83 141.76 166.58 144.96"/><polygon class="cls-7" points="164 150.14 164 166.31 147.83 161.97 147.83 141.76 164 150.14"/><polygon class="cls-29" points="213.94 24.52 184.21 87.78 79.69 35.23 213.94 24.52"/><polygon class="cls-12" points="157.65 109.01 144.27 116.1 124.73 126.46 118.96 91.52 157.65 109.01"/><polygon class="cls-9" points="147.83 141.76 147.83 161.97 138.3 161.11 128.37 154.03 124.73 141.69 124.73 126.46 144.27 116.1 147.83 141.76"/><polygon class="cls-6" points="147.83 161.97 138.3 173.81 128.37 192.87 111.98 170.52 138.3 161.11 147.83 161.97"/><polygon class="cls-30" points="147.83 310.09 71.03 329.15 71.03 329.15 49.09 320.49 147.83 310.09"/><polygon class="cls-31" points="147.83 310.09 49.09 320.49 91.27 290.46 140.9 271.4 147.83 310.09"/><polygon class="cls-32" points="128.37 192.87 140.9 271.4 115.5 204.76 128.37 192.87"/><polygon class="cls-33" points="115.5 204.76 140.9 271.4 92.97 242.54 115.5 204.76"/><polygon class="cls-34" points="140.9 271.4 91.27 290.46 43.89 271.4 140.9 271.4"/><polygon class="cls-5" points="140.9 271.4 43.89 271.4 58.9 242.54 140.9 271.4"/><polygon class="cls-35" points="140.9 271.4 58.9 242.54 34.36 239.07 17.91 227.52 55.73 231.56 92.97 242.54 140.9 271.4"/><polygon class="cls-12" points="138.3 161.11 111.98 170.52 109 140.28 124.73 126.46 124.73 138.3 124.73 141.69 128.37 154.03 138.3 161.11"/><polygon class="cls-4" points="111.98 170.52 128.37 192.87 115.5 204.76 109 194.6 102.79 189.29 111.98 170.52"/><polygon class="cls-29" points="118.96 91.52 124.73 126.46 109 140.28 111.98 170.52 95.67 164 64.51 169.19 90.82 138.7 102.79 124.75 102.79 114.34 118.96 91.52"/><polygon class="cls-12" points="118.96 91.52 102.79 114.34 79.69 80.84 118.96 91.52"/><polygon class="cls-32" points="115.5 204.76 92.97 242.54 67.06 204.76 115.5 204.76"/><polygon class="cls-19" points="111.98 170.52 102.79 189.29 87.2 192.87 77.64 204.76 67.06 204.76 55.73 188.25 64.51 169.19 95.67 164 111.98 170.52"/><polygon class="cls-3" points="102.79 114.34 102.79 124.75 90.82 138.7 71.61 102.21 102.79 114.34"/><polygon class="cls-36" points="67.06 204.76 92.97 242.54 55.73 231.56 55.73 188.25 67.06 204.76"/><polygon class="cls-27" points="91.27 290.46 49.09 320.49 43.89 271.4 91.27 290.46"/><polygon class="cls-12" points="71.61 102.21 90.82 138.7 75.85 125.89 64.51 118.38 39.84 126.46 71.61 102.21"/><polygon class="cls-37" points="90.82 138.7 78.28 153.23 64.51 135.7 71.61 134.98 90.82 138.7"/><polygon class="cls-22" points="90.82 138.7 71.61 134.98 75.85 125.89 90.82 138.7"/><polygon class="cls-25" points="79.69 35.23 118.96 91.52 79.69 80.84 49.33 91.57 54.28 73.34 79.69 35.23"/><polygon class="cls-13" points="79.69 80.84 102.79 114.34 71.61 102.21 49.33 91.57 79.69 80.84"/><polygon class="cls-11" points="75.85 125.89 71.61 134.98 64.51 135.7 55.73 132.41 52.18 126.46 64.51 118.38 75.85 125.89"/><polygon class="cls-36" points="64.51 135.7 78.28 153.23 46.2 150.14 64.51 135.7"/><polygon class="cls-3" points="71.61 102.21 39.84 126.46 49.33 91.57 71.61 102.21"/><polygon class="cls-22" points="64.51 118.38 52.18 126.46 55.73 132.41 39.84 126.46 64.51 118.38"/><polygon class="cls-6" points="64.51 135.7 46.2 150.14 39.84 126.46 55.73 132.41 64.51 135.7"/><polygon class="cls-38" points="58.9 242.54 43.89 271.4 34.36 239.07 58.9 242.54"/><polygon class="cls-26" points="55.73 188.25 55.73 231.56 17.91 227.52 55.73 188.25"/><polyline class="cls-34" points="64.51 169.19 55.73 188.25 17.91 227.52 55.73 172.08 78.28 153.23"/><polygon class="cls-39" points="46.2 150.14 78.28 153.23 55.73 172.08 12.9 181.76 12.91 181.76 46.2 150.14"/><polygon class="cls-27" points="55.73 172.08 17.91 227.52 12.9 181.77 12.9 181.76 55.73 172.08"/><polygon class="cls-16" points="43.89 271.4 49.09 320.49 19.63 307.78 43.89 271.4"/><polygon class="cls-26" points="46.2 150.14 12.91 181.76 22.53 154.18 39.84 126.46 46.2 150.14"/><polygon class="cls-40" points="43.89 271.4 19.63 307.78 6.88 271.4 43.89 271.4"/><polygon class="cls-41" points="34.36 239.07 43.89 271.4 6.88 271.4 0 251.77 1.25 242.54 17.91 227.52 34.36 239.07"/><polygon class="cls-26" points="12.9 181.77 17.91 227.52 1.25 242.54 7.22 198.06 12.9 181.77"/><polygon class="cls-11" points="77.64 204.76 115.5 204.76 109 194.6 102.79 189.29 87.2 192.87 77.64 204.76"/></g></g></svg>