<svg xmlns="http://www.w3.org/2000/svg" xmlns:xlink="http://www.w3.org/1999/xlink" xmlns:lucid="lucid" width="930" height="465.67"><g transform="translate(-60 -31)" lucid:page-tab-id="1d.z6w8BWZaX"><path d="M0 0h1012v949.33H0z" fill="#fff"/><path d="M80 97.92c0-4.42 3.55-8.44 7.94-9L232.06 71c4.4-.56 7.94 2.58 7.94 7v104c0 4.42-3.58 8-8 8H88c-4.42 0-8-3.58-8-8z" stroke="#000" stroke-opacity="0" stroke-width="2" fill="#99d2f2"/><use xlink:href="#a" transform="matrix(1,0,0,1,85,95) translate(40.025 36.9)"/><use xlink:href="#b" transform="matrix(1,0,0,1,85,95) translate(31.074999999999996 58.5)"/><path d="M313 97.92c0-4.42 3.55-8.44 7.94-9L465.06 71c4.4-.56 7.94 2.58 7.94 7v104c0 4.42-3.58 8-8 8H321c-4.42 0-8-3.58-8-8z" stroke="#000" stroke-opacity="0" stroke-width="2" fill="#99d2f2"/><use xlink:href="#c" transform="matrix(1,0,0,1,318,95) translate(42.525 36.9)"/><use xlink:href="#d" transform="matrix(1,0,0,1,318,95) translate(33.525 58.5)"/><path d="M546 97.92c0-4.42 3.55-8.44 7.94-9L698.06 71c4.4-.56 7.94 2.58 7.94 7v104c0 4.42-3.58 8-8 8H554c-4.42 0-8-3.58-8-8z" stroke="#000" stroke-opacity="0" stroke-width="2" fill="#99d2f2"/><use xlink:href="#e" transform="matrix(1,0,0,1,551,95) translate(49.55 48.15)"/><path d="M907 90c17.67 0 32 17.9 32 40s-14.33 40-32 40h-96c-17.67 0-32-17.9-32-40s14.33-40 32-40z" stroke="#000" stroke-opacity="0" stroke-width="3" fill="#ef8d22"/><use xlink:href="#f" transform="matrix(1,0,0,1,784,95) translate(25.709876543209873 39.65277777777778)"/><use xlink:href="#g" transform="matrix(1,0,0,1,784,95) translate(76.2037037037037 39.65277777777778)"/><path d="M241 130.24h53.5" stroke="#83bbe5" stroke-width="2" fill="none"/><path d="M241.03 131.24H240v-2h1.03z" fill="#83bbe5"/><path d="M309.76 130.24l-14.26 4.63v-9.27z" stroke="#83bbe5" stroke-width="2" fill="#83bbe5"/><path d="M474 130.24h53.5" stroke="#83bbe5" stroke-width="2" fill="none"/><path d="M474.03 131.24H473v-2h1.03z" fill="#83bbe5"/><path d="M542.76 130.24l-14.26 4.63v-9.27z" stroke="#83bbe5" stroke-width="2" fill="#83bbe5"/><path d="M707 130.24h53.5" stroke="#83bbe5" stroke-width="2" fill="none"/><path d="M707.03 131.24H706v-2h1.03z" fill="#83bbe5"/><path d="M775.77 130.24l-14.26 4.63v-9.27z" stroke="#83bbe5" stroke-width="2" fill="#83bbe5"/><g fill="none"><path d="M626.25 446.67c-3.3 0-6-2.7-6-6V365.4c0-3.32 2.7-6 6-6h61.25c3.3 0 6 2.68 6 6v75.27c0 3.3-2.7 6-6 6z"/><path d="M693.5 446.67c0-5.53-4.48-10-10-10h-16.63c-5.52 0-10-4.48-10-10 0 5.52-4.47 10-10 10h-16.62c-5.52 0-10 4.47-10 10" stroke="#fcc438" stroke-width="3"/></g><g fill="none"><path d="M626.25 317.58c-3.3 0-6-2.7-6-6V236.3c0-3.3 2.7-6 6-6h61.25c3.3 0 6 2.7 6 6v75.28c0 3.3-2.7 6-6 6z"/><path d="M693.5 317.58c0-5.53-4.48-10-10-10h-16.63c-5.52 0-10-4.48-10-10 0 5.52-4.47 10-10 10h-16.62c-5.52 0-10 4.47-10 10" stroke="#fcc438" stroke-width="3"/></g><g fill="none"><path d="M662.88 339.4c-3.32 0-6-2.7-6-6V258.1c0-3.3 2.68-6 6-6h61.25c3.3 0 6 2.7 6 6v75.27c0 3.3-2.7 6-6 6z"/><path d="M730.13 339.4c0-5.53-4.48-10-10-10H703.5c-5.52 0-10-4.48-10-10 0 5.52-4.48 10-10 10h-16.63c-5.52 0-10 4.47-10 10" stroke="#fcc438" stroke-width="3"/></g><g fill="none"><path d="M589.63 339.4c-3.32 0-6-2.7-6-6V258.1c0-3.3 2.68-6 6-6h61.25c3.3 0 6 2.7 6 6v75.27c0 3.3-2.7 6-6 6z"/><path d="M656.88 339.4c0-5.53-4.48-10-10-10h-16.63c-5.52 0-10-4.48-10-10 0 5.52-4.48 10-10 10h-16.63c-5.52 0-10 4.47-10 10" stroke="#fcc438" stroke-width="3"/></g><g fill="none"><path d="M699.5 361.2c-3.3 0-6-2.67-6-6v-75.26c0-3.3 2.7-6 6-6h61.25c3.3 0 6 2.7 6 6v75.27c0 3.33-2.7 6-6 6z"/><path d="M766.75 361.2c0-5.5-4.48-10-10-10h-16.63c-5.52 0-10-4.47-10-10 0 5.53-4.47 10-10 10H703.5c-5.52 0-10 4.5-10 10" stroke="#fcc438" stroke-width="3"/></g><g fill="none"><path d="M736.13 383.03c-3.32 0-6-2.7-6-6v-75.27c0-3.32 2.68-6 6-6h61.25c3.3 0 6 2.68 6 6v75.27c0 3.3-2.7 6-6 6z"/><path d="M803.38 383.03c0-5.52-4.48-10-10-10h-16.63c-5.52 0-10-4.48-10-10 0 5.52-4.48 10-10 10h-16.63c-5.52 0-10 4.48-10 10" stroke="#fcc438" stroke-width="3"/></g><g fill="none"><path d="M662.88 383.03c-3.32 0-6-2.7-6-6v-75.27c0-3.32 2.68-6 6-6h61.25c3.3 0 6 2.68 6 6v75.27c0 3.3-2.7 6-6 6z"/><path d="M730.13 383.03c0-5.52-4.48-10-10-10H703.5c-5.52 0-10-4.48-10-10 0 5.52-4.48 10-10 10h-16.63c-5.52 0-10 4.48-10 10" stroke="#fcc438" stroke-width="3"/></g><g fill="none"><path d="M626.25 404.85c-3.3 0-6-2.7-6-6v-75.27c0-3.32 2.7-6 6-6h61.25c3.3 0 6 2.68 6 6v75.27c0 3.3-2.7 6-6 6z"/><path d="M693.5 404.85c0-5.52-4.48-10-10-10h-16.63c-5.52 0-10-4.48-10-10 0 5.52-4.47 10-10 10h-16.62c-5.52 0-10 4.48-10 10" stroke="#fcc438" stroke-width="3"/></g><g fill="none"><path d="M662.88 426.67c-3.32 0-6-2.7-6-6V345.4c0-3.32 2.68-6 6-6h61.25c3.3 0 6 2.68 6 6v75.27c0 3.3-2.7 6-6 6z"/><path d="M730.13 426.67c0-5.53-4.48-10-10-10H703.5c-5.52 0-10-4.48-10-10 0 5.52-4.48 10-10 10h-16.63c-5.52 0-10 4.47-10 10" stroke="#fcc438" stroke-width="3"/></g><g fill="none"><path d="M589.63 426.67c-3.32 0-6-2.7-6-6V345.4c0-3.32 2.68-6 6-6h61.25c3.3 0 6 2.68 6 6v75.27c0 3.3-2.7 6-6 6z"/><path d="M656.88 426.67c0-5.53-4.48-10-10-10h-16.63c-5.52 0-10-4.48-10-10 0 5.52-4.48 10-10 10h-16.63c-5.52 0-10 4.47-10 10" stroke="#fcc438" stroke-width="3"/></g><g fill="none"><path d="M553 361.2c-3.3 0-6-2.67-6-6v-75.26c0-3.3 2.7-6 6-6h61.25c3.3 0 6 2.7 6 6v75.27c0 3.33-2.7 6-6 6z"/><path d="M620.25 361.2c0-5.5-4.48-10-10-10h-16.63c-5.52 0-10-4.47-10-10 0 5.53-4.47 10-10 10H557c-5.52 0-10 4.5-10 10" stroke="#fcc438" stroke-width="3"/></g><g fill="none"><path d="M299.25 433.03c-3.3 0-6-2.7-6-6v-75.27c0-3.32 2.7-6 6-6h61.25c3.3 0 6 2.68 6 6v75.27c0 3.3-2.7 6-6 6z"/><path d="M366.5 433.03c0-5.52-4.48-10-10-10h-16.63c-5.52 0-10-4.48-10-10 0 5.52-4.47 10-10 10h-16.62c-5.52 0-10 4.48-10 10" stroke="#fcc438" stroke-width="3"/></g><g fill="none"><path d="M262.63 454.85c-3.32 0-6-2.7-6-6v-75.27c0-3.32 2.68-6 6-6h61.25c3.3 0 6 2.68 6 6v75.27c0 3.3-2.7 6-6 6z"/><path d="M329.88 454.85c0-5.52-4.48-10-10-10h-16.63c-5.52 0-10-4.48-10-10 0 5.52-4.48 10-10 10h-16.63c-5.52 0-10 4.48-10 10" stroke="#fcc438" stroke-width="3"/></g><g fill="none"><path d="M226 476.67c-3.3 0-6-2.7-6-6V395.4c0-3.32 2.7-6 6-6h61.25c3.3 0 6 2.68 6 6v75.27c0 3.3-2.7 6-6 6z"/><path d="M293.25 476.67c0-5.53-4.48-10-10-10h-16.63c-5.52 0-10-4.48-10-10 0 5.52-4.47 10-10 10H230c-5.52 0-10 4.47-10 10" stroke="#fcc438" stroke-width="3"/></g><g fill="none"><path d="M299.25 303.94c-3.3 0-6-2.7-6-6v-75.27c0-3.32 2.7-6 6-6h61.25c3.3 0 6 2.68 6 6v75.27c0 3.3-2.7 6-6 6z"/><path d="M366.5 303.94c0-5.52-4.48-10-10-10h-16.63c-5.52 0-10-4.48-10-10 0 5.52-4.47 10-10 10h-16.62c-5.52 0-10 4.48-10 10" stroke="#fcc438" stroke-width="3"/></g><g fill="none"><path d="M335.88 325.76c-3.32 0-6-2.7-6-6v-75.28c0-3.3 2.68-6 6-6h61.25c3.3 0 6 2.7 6 6v75.28c0 3.3-2.7 6-6 6z"/><path d="M403.13 325.76c0-5.53-4.48-10-10-10H376.5c-5.52 0-10-4.48-10-10 0 5.52-4.48 10-10 10h-16.63c-5.52 0-10 4.47-10 10" stroke="#fcc438" stroke-width="3"/></g><g fill="none"><path d="M262.63 325.76c-3.32 0-6-2.7-6-6v-75.28c0-3.3 2.68-6 6-6h61.25c3.3 0 6 2.7 6 6v75.28c0 3.3-2.7 6-6 6z"/><path d="M329.88 325.76c0-5.53-4.48-10-10-10h-16.63c-5.52 0-10-4.48-10-10 0 5.52-4.48 10-10 10h-16.63c-5.52 0-10 4.47-10 10" stroke="#fcc438" stroke-width="3"/></g><g fill="none"><path d="M372.5 347.58c-3.3 0-6-2.7-6-6V266.3c0-3.3 2.7-6 6-6h61.25c3.3 0 6 2.7 6 6v75.28c0 3.3-2.7 6-6 6z"/><path d="M439.75 347.58c0-5.53-4.48-10-10-10h-16.63c-5.52 0-10-4.48-10-10 0 5.52-4.47 10-10 10H376.5c-5.52 0-10 4.47-10 10" stroke="#fcc438" stroke-width="3"/></g><g fill="none"><path d="M409.13 369.4c-3.32 0-6-2.7-6-6V288.1c0-3.3 2.68-6 6-6h61.25c3.3 0 6 2.7 6 6v75.27c0 3.3-2.7 6-6 6z"/><path d="M476.38 369.4c0-5.53-4.48-10-10-10h-16.63c-5.52 0-10-4.48-10-10 0 5.52-4.48 10-10 10h-16.63c-5.52 0-10 4.47-10 10" stroke="#fcc438" stroke-width="3"/></g><g fill="none"><path d="M335.88 369.4c-3.32 0-6-2.7-6-6V288.1c0-3.3 2.68-6 6-6h61.25c3.3 0 6 2.7 6 6v75.27c0 3.3-2.7 6-6 6z"/><path d="M403.13 369.4c0-5.53-4.48-10-10-10H376.5c-5.52 0-10-4.48-10-10 0 5.52-4.48 10-10 10h-16.63c-5.52 0-10 4.47-10 10" stroke="#fcc438" stroke-width="3"/></g><g fill="none"><path d="M299.25 391.2c-3.3 0-6-2.67-6-6v-75.26c0-3.3 2.7-6 6-6h61.25c3.3 0 6 2.7 6 6v75.27c0 3.33-2.7 6-6 6z"/><path d="M366.5 391.2c0-5.5-4.48-10-10-10h-16.63c-5.52 0-10-4.47-10-10 0 5.53-4.47 10-10 10h-16.62c-5.52 0-10 4.5-10 10" stroke="#fcc438" stroke-width="3"/></g><g fill="none"><path d="M335.88 413.03c-3.32 0-6-2.7-6-6v-75.27c0-3.32 2.68-6 6-6h61.25c3.3 0 6 2.68 6 6v75.27c0 3.3-2.7 6-6 6z"/><path d="M403.13 413.03c0-5.52-4.48-10-10-10H376.5c-5.52 0-10-4.48-10-10 0 5.52-4.48 10-10 10h-16.63c-5.52 0-10 4.48-10 10" stroke="#fcc438" stroke-width="3"/></g><g fill="none"><path d="M262.63 413.03c-3.32 0-6-2.7-6-6v-75.27c0-3.32 2.68-6 6-6h61.25c3.3 0 6 2.68 6 6v75.27c0 3.3-2.7 6-6 6z"/><path d="M329.88 413.03c0-5.52-4.48-10-10-10h-16.63c-5.52 0-10-4.48-10-10 0 5.52-4.48 10-10 10h-16.63c-5.52 0-10 4.48-10 10" stroke="#fcc438" stroke-width="3"/></g><g fill="none"><path d="M226 347.58c-3.3 0-6-2.7-6-6V266.3c0-3.3 2.7-6 6-6h61.25c3.3 0 6 2.7 6 6v75.28c0 3.3-2.7 6-6 6z"/><path d="M293.25 347.58c0-5.53-4.48-10-10-10h-16.63c-5.52 0-10-4.48-10-10 0 5.52-4.47 10-10 10H230c-5.52 0-10 4.47-10 10" stroke="#fcc438" stroke-width="3"/></g><path d="M940 130h33c3.3 0 6-2.7 6-6V48c0-3.3-2.7-6-6-6H166c-3.3 0-6 2.7-6 6v15.5" stroke="#83bbe5" stroke-width="2" fill="none"/><path d="M940.03 131h-1.1l.07-1-.04-1h1.07z" fill="#83bbe5"/><path d="M160 78.76l-4.64-14.26h9.28z" stroke="#83bbe5" stroke-width="2" fill="#83bbe5"/><path d="M220 222.67c0-3.32 2.7-6 6-6h228c3.3 0 6 2.68 6 6V274c0 3.3-2.7 6-6 6H226c-3.3 0-6-2.7-6-6z" stroke="#000" stroke-opacity="0" stroke-width="3" fill="#fff" fill-opacity="0"/><use xlink:href="#h" transform="matrix(1,0,0,1,225,221.66666666666669) translate(76.85185185185185 31.27777777777778)"/><path d="M540 222.67c0-3.32 2.7-6 6-6h228c3.3 0 6 2.68 6 6V274c0 3.3-2.7 6-6 6H546c-3.3 0-6-2.7-6-6z" stroke="#000" stroke-opacity="0" stroke-width="3" fill="#fff" fill-opacity="0"/><g><use xlink:href="#i" transform="matrix(1,0,0,1,545,221.66666666666669) translate(67.5 31.27777777777778)"/></g><defs><path fill="#fff" d="M11 0l48-248h184l-5 28H87l-15 79h140l-5 27H67L50-27h158l-5 27H11" id="j"/><path fill="#fff" d="M89 0H52L20-190h33L74-25l89-165h34" id="k"/><path fill="#fff" d="M165-48c-4 18 1 34 23 27l-3 20c-29 8-62 0-52-35h-2C116-14 99 4 63 4 30 4 8-16 8-49c0-68 71-67 138-67 10-26 0-56-31-54-26 1-42 9-47 31l-32-5c8-67 160-71 144 15-5 28-9 54-15 81zM42-50c3 52 80 24 89-6 7-12 7-24 11-38-47 1-103-4-100 44" id="l"/><path fill="#fff" d="M6 0l50-261h32L37 0H6" id="m"/><path fill="#fff" d="M67 3c-93-2-31-127-26-193h32L48-50c-3 39 53 32 70 12 30-34 30-101 43-152h32L157 0h-30c1-10 6-24 4-33-14 20-29 37-64 36" id="n"/><path fill="#fff" d="M51-54c-9 22 5 41 31 30L79-1C43 14 10-4 19-52l22-115H19l5-23h22l19-43h21l-9 43h35l-4 23H73" id="o"/><path fill="#fff" d="M111-194c62-3 86 47 72 106H45c-7 38 6 69 45 68 27-1 43-14 53-32l24 11C152-15 129 4 87 4 38 3 12-23 12-71c0-70 32-119 99-123zm44 81c14-66-71-72-95-28-4 8-8 17-11 28h106" id="p"/><g id="a"><use transform="matrix(0.05,0,0,0.05,0,0)" xlink:href="#j"/><use transform="matrix(0.05,0,0,0.05,12,0)" xlink:href="#k"/><use transform="matrix(0.05,0,0,0.05,21,0)" xlink:href="#l"/><use transform="matrix(0.05,0,0,0.05,31,0)" xlink:href="#m"/><use transform="matrix(0.05,0,0,0.05,34.95,0)" xlink:href="#n"/><use transform="matrix(0.05,0,0,0.05,44.95,0)" xlink:href="#l"/><use transform="matrix(0.05,0,0,0.05,54.95,0)" xlink:href="#o"/><use transform="matrix(0.05,0,0,0.05,59.95,0)" xlink:href="#p"/></g><path fill="#fff" d="M67-162c32-53 139-36 121 50C175-51 163 2 97 4 68 4 52-11 42-31 38 6 28 39 22 75H-9l50-265h29c-1 10 0 20-3 28zm89 36c0-26-10-43-35-43-54 0-67 50-69 103-1 29 14 45 42 46 53 0 62-58 62-106" id="q"/><path fill="#fff" d="M66-151c12-25 30-51 66-40l-6 26C45-176 58-65 38 0H6l36-190h30" id="r"/><path fill="#fff" d="M30-147c31-64 166-65 159 27C183-49 158 1 86 4 9 8 1-88 30-147zM88-20c53 0 68-48 68-100 0-31-11-51-44-50-52 1-68 46-68 97 0 32 13 53 44 53" id="s"/><path fill="#fff" d="M55-144c13 50 104 24 104 88C159 21 15 23 1-39l26-10c6 40 102 42 102-4-13-50-104-23-104-87 0-71 143-71 148-8l-29 4c-5-35-85-37-89 0" id="t"/><path fill="#fff" d="M50-231l6-30h32l-6 30H50zM6 0l37-190h31L37 0H6" id="u"/><path fill="#fff" d="M67-158c22-48 132-52 116 29L158 0h-32l25-140c3-38-53-32-70-12C52-117 51-52 38 0H6l36-190h30" id="v"/><g id="b"><use transform="matrix(0.05,0,0,0.05,0,0)" xlink:href="#q"/><use transform="matrix(0.05,0,0,0.05,10,0)" xlink:href="#r"/><use transform="matrix(0.05,0,0,0.05,15.949999999999998,0)" xlink:href="#s"/><use transform="matrix(0.05,0,0,0.05,25.950000000000003,0)" xlink:href="#q"/><use transform="matrix(0.05,0,0,0.05,35.95,0)" xlink:href="#s"/><use transform="matrix(0.05,0,0,0.05,45.95,0)" xlink:href="#t"/><use transform="matrix(0.05,0,0,0.05,54.95,0)" xlink:href="#u"/><use transform="matrix(0.05,0,0,0.05,58.900000000000006,0)" xlink:href="#o"/><use transform="matrix(0.05,0,0,0.05,63.900000000000006,0)" xlink:href="#u"/><use transform="matrix(0.05,0,0,0.05,67.85000000000001,0)" xlink:href="#s"/><use transform="matrix(0.05,0,0,0.05,77.85000000000001,0)" xlink:href="#v"/></g><path fill="#fff" d="M124 0L87-78 21 0h-35l86-98-46-92h33l34 74 61-74h37l-83 92 50 98h-34" id="w"/><path fill="#fff" d="M44-68c0 29 11 47 38 47 30 0 42-19 51-41l28 9C148-21 126 4 82 4 31 4 10-29 12-85c3-77 74-140 146-93 12 8 15 23 18 40l-31 5c-1-22-13-36-36-36-52 0-65 49-65 101" id="x"/><g id="c"><use transform="matrix(0.05,0,0,0.05,0,0)" xlink:href="#j"/><use transform="matrix(0.05,0,0,0.05,12,0)" xlink:href="#w"/><use transform="matrix(0.05,0,0,0.05,21,0)" xlink:href="#x"/><use transform="matrix(0.05,0,0,0.05,30,0)" xlink:href="#o"/><use transform="matrix(0.05,0,0,0.05,35,0)" xlink:href="#r"/><use transform="matrix(0.05,0,0,0.05,40.95,0)" xlink:href="#l"/><use transform="matrix(0.05,0,0,0.05,50.95,0)" xlink:href="#x"/><use transform="matrix(0.05,0,0,0.05,59.95,0)" xlink:href="#o"/></g><path fill="#fff" d="M248-111c6-24 9-61-24-58-72 9-57 108-77 169h-31l26-142c3-37-50-30-64-10C52-115 50-51 37 0H6l36-190h30c-1 10-6 24-4 32 13-43 101-52 105 5 13-22 29-41 61-41 90 0 28 129 23 194h-31" id="y"/><path fill="#fff" d="M133-28C103 26-5 8 13-77c13-62 24-115 90-117 29-1 46 15 56 35l19-102h32L160 0h-30zM45-64c-2 27 10 43 35 43 54-1 69-50 69-103 0-29-15-46-42-46-53-1-58 58-62 106" id="z"/><g id="d"><use transform="matrix(0.05,0,0,0.05,0,0)" xlink:href="#x"/><use transform="matrix(0.05,0,0,0.05,9,0)" xlink:href="#s"/><use transform="matrix(0.05,0,0,0.05,19,0)" xlink:href="#v"/><use transform="matrix(0.05,0,0,0.05,29,0)" xlink:href="#t"/><use transform="matrix(0.05,0,0,0.05,38,0)" xlink:href="#n"/><use transform="matrix(0.05,0,0,0.05,48,0)" xlink:href="#y"/><use transform="matrix(0.05,0,0,0.05,62.95,0)" xlink:href="#p"/><use transform="matrix(0.05,0,0,0.05,72.95,0)" xlink:href="#z"/></g><path fill="#fff" d="M194-120c59 52 2 134-86 124-53-6-90-18-98-63l31-7c8 30 29 43 70 43 46 0 84-17 71-62-32-43-135-20-137-98-3-89 178-90 191-16l-30 9c-8-48-127-53-127 5 0 53 81 35 115 65" id="A"/><path fill="#fff" d="M67-158c15-20 31-36 64-36 94 0 33 127 27 194h-32l25-140c3-38-53-32-70-12C52-117 51-51 37 0H6l51-261h31" id="B"/><path fill="#fff" d="M127 0L80-88 50-66 37 0H6l51-261h31L57-100l99-90h39l-93 82L161 0h-34" id="C"/><g id="e"><use transform="matrix(0.05,0,0,0.05,0,0)" xlink:href="#A"/><use transform="matrix(0.05,0,0,0.05,12,0)" xlink:href="#B"/><use transform="matrix(0.05,0,0,0.05,22,0)" xlink:href="#r"/><use transform="matrix(0.05,0,0,0.05,27.950000000000003,0)" xlink:href="#u"/><use transform="matrix(0.05,0,0,0.05,31.899999999999995,0)" xlink:href="#v"/><use transform="matrix(0.05,0,0,0.05,41.9,0)" xlink:href="#C"/></g><path fill="#fff" d="M190 0L58-211 59 0H30v-248h39L202-35l-2-213h31V0h-41" id="D"/><path fill="#fff" d="M100-194c63 0 86 42 84 106H49c0 40 14 67 53 68 26 1 43-12 49-29l28 8c-11 28-37 45-77 45C44 4 14-33 15-96c1-61 26-98 85-98zm52 81c6-60-76-77-97-28-3 7-6 17-6 28h103" id="E"/><path fill="#fff" d="M206 0h-36l-40-164L89 0H53L-1-190h32L70-26l43-164h34l41 164 42-164h31" id="F"/><g id="f"><use transform="matrix(0.06172839506172839,0,0,0.06172839506172839,0,0)" xlink:href="#D"/><use transform="matrix(0.06172839506172839,0,0,0.06172839506172839,15.987654320987653,0)" xlink:href="#E"/><use transform="matrix(0.06172839506172839,0,0,0.06172839506172839,28.333333333333332,0)" xlink:href="#F"/></g><path fill="#fff" d="M24-231v-30h32v30H24zM24 0v-190h32V0H24" id="G"/><path fill="#fff" d="M117-194c89-4 53 116 60 194h-32v-121c0-31-8-49-39-48C34-167 62-67 57 0H25l-1-190h30c1 10-1 24 2 32 11-22 29-35 61-36" id="H"/><path fill="#fff" d="M115-194c55 1 70 41 70 98S169 2 115 4C84 4 66-9 55-30l1 105H24l-1-265h31l2 30c10-21 28-34 59-34zm-8 174c40 0 45-34 45-75s-6-73-45-74c-42 0-51 32-51 76 0 43 10 73 51 73" id="I"/><path fill="#fff" d="M84 4C-5 8 30-112 23-190h32v120c0 31 7 50 39 49 72-2 45-101 50-169h31l1 190h-30c-1-10 1-25-2-33-11 22-28 36-60 37" id="J"/><path fill="#fff" d="M59-47c-2 24 18 29 38 22v24C64 9 27 4 27-40v-127H5v-23h24l9-43h21v43h35v23H59v120" id="K"/><g id="g"><use transform="matrix(0.06172839506172839,0,0,0.06172839506172839,0,0)" xlink:href="#G"/><use transform="matrix(0.06172839506172839,0,0,0.06172839506172839,4.876543209876543,0)" xlink:href="#H"/><use transform="matrix(0.06172839506172839,0,0,0.06172839506172839,17.22222222222222,0)" xlink:href="#I"/><use transform="matrix(0.06172839506172839,0,0,0.06172839506172839,29.5679012345679,0)" xlink:href="#J"/><use transform="matrix(0.06172839506172839,0,0,0.06172839506172839,41.913580246913575,0)" xlink:href="#K"/></g><path fill="#0c7cba" d="M140-251c81 0 123 46 123 126C263-46 219 4 140 4 59 4 17-45 17-125s42-126 123-126zm0 227c63 0 89-41 89-101s-29-99-89-99c-61 0-89 39-89 99S79-25 140-24" id="L"/><path fill="#0c7cba" d="M114-163C36-179 61-72 57 0H25l-1-190h30c1 12-1 29 2 39 6-27 23-49 58-41v29" id="M"/><path fill="#0c7cba" d="M24-231v-30h32v30H24zM24 0v-190h32V0H24" id="N"/><path fill="#0c7cba" d="M177-190C167-65 218 103 67 71c-23-6-38-20-44-43l32-5c15 47 100 32 89-28v-30C133-14 115 1 83 1 29 1 15-40 15-95c0-56 16-97 71-98 29-1 48 16 59 35 1-10 0-23 2-32h30zM94-22c36 0 50-32 50-73 0-42-14-75-50-75-39 0-46 34-46 75s6 73 46 73" id="O"/><path fill="#0c7cba" d="M117-194c89-4 53 116 60 194h-32v-121c0-31-8-49-39-48C34-167 62-67 57 0H25l-1-190h30c1 10-1 24 2 32 11-22 29-35 61-36" id="P"/><path fill="#0c7cba" d="M141-36C126-15 110 5 73 4 37 3 15-17 15-53c-1-64 63-63 125-63 3-35-9-54-41-54-24 1-41 7-42 31l-33-3c5-37 33-52 76-52 45 0 72 20 72 64v82c-1 20 7 32 28 27v20c-31 9-61-2-59-35zM48-53c0 20 12 33 32 33 41-3 63-29 60-74-43 2-92-5-92 41" id="Q"/><path fill="#0c7cba" d="M24 0v-261h32V0H24" id="R"/><g id="h"><use transform="matrix(0.06172839506172839,0,0,0.06172839506172839,0,0)" xlink:href="#L"/><use transform="matrix(0.06172839506172839,0,0,0.06172839506172839,17.28395061728395,0)" xlink:href="#M"/><use transform="matrix(0.06172839506172839,0,0,0.06172839506172839,24.629629629629626,0)" xlink:href="#N"/><use transform="matrix(0.06172839506172839,0,0,0.06172839506172839,29.50617283950617,0)" xlink:href="#O"/><use transform="matrix(0.06172839506172839,0,0,0.06172839506172839,41.85185185185185,0)" xlink:href="#N"/><use transform="matrix(0.06172839506172839,0,0,0.06172839506172839,46.72839506172839,0)" xlink:href="#P"/><use transform="matrix(0.06172839506172839,0,0,0.06172839506172839,59.07407407407407,0)" xlink:href="#Q"/><use transform="matrix(0.06172839506172839,0,0,0.06172839506172839,71.41975308641975,0)" xlink:href="#R"/></g><path fill="#0c7cba" d="M185-189c-5-48-123-54-124 2 14 75 158 14 163 119 3 78-121 87-175 55-17-10-28-26-33-46l33-7c5 56 141 63 141-1 0-78-155-14-162-118-5-82 145-84 179-34 5 7 8 16 11 25" id="S"/><path fill="#0c7cba" d="M106-169C34-169 62-67 57 0H25v-261h32l-1 103c12-21 28-36 61-36 89 0 53 116 60 194h-32v-121c2-32-8-49-39-48" id="T"/><path fill="#0c7cba" d="M84 4C-5 8 30-112 23-190h32v120c0 31 7 50 39 49 72-2 45-101 50-169h31l1 190h-30c-1-10 1-25-2-33-11 22-28 36-60 37" id="U"/><path fill="#0c7cba" d="M143 0L79-87 56-68V0H24v-261h32v163l83-92h37l-77 82L181 0h-38" id="V"/><path fill="#0c7cba" d="M100-194c63 0 86 42 84 106H49c0 40 14 67 53 68 26 1 43-12 49-29l28 8c-11 28-37 45-77 45C44 4 14-33 15-96c1-61 26-98 85-98zm52 81c6-60-76-77-97-28-3 7-6 17-6 28h103" id="W"/><g id="i"><use transform="matrix(0.06172839506172839,0,0,0.06172839506172839,0,0)" xlink:href="#S"/><use transform="matrix(0.06172839506172839,0,0,0.06172839506172839,14.814814814814813,0)" xlink:href="#T"/><use transform="matrix(0.06172839506172839,0,0,0.06172839506172839,27.160493827160494,0)" xlink:href="#M"/><use transform="matrix(0.06172839506172839,0,0,0.06172839506172839,34.50617283950617,0)" xlink:href="#U"/><use transform="matrix(0.06172839506172839,0,0,0.06172839506172839,46.85185185185185,0)" xlink:href="#P"/><use transform="matrix(0.06172839506172839,0,0,0.06172839506172839,59.197530864197525,0)" xlink:href="#V"/><use transform="matrix(0.06172839506172839,0,0,0.06172839506172839,70.30864197530863,0)" xlink:href="#W"/><use transform="matrix(0.06172839506172839,0,0,0.06172839506172839,82.65432098765432,0)" xlink:href="#P"/></g></defs></g></svg>